<?xml version="1.0" encoding="utf-8"?>
<!-- Generator: Adobe Illustrator 25.4.1, SVG Export Plug-In . SVG Version: 6.00 Build 0)  -->
<svg version="1.1" id="Layer_1" xmlns="http://www.w3.org/2000/svg" xmlns:xlink="http://www.w3.org/1999/xlink" x="0px" y="0px"
	 viewBox="0 0 2000 1140" style="enable-background:new 0 0 2000 1140;" xml:space="preserve">
<style type="text/css">
	.st0{fill:#FFFFFF;}
	.st1{fill:#FFFFFF;stroke:#FFFFFF;stroke-width:4.0876;stroke-miterlimit:10;}
</style>
<!-- <polygon points="1997.5,0 1458.21,0 1458.21,0.01 2.5,0.01 2.5,1140 1458.22,1140 1458.22,1139.99 1997.5,1139.99 "/> -->
<!-- <polygon points="-22.5,0 -561.79,0 -561.79,0.01 -2017.5,0.01 -2017.5,1140 -561.78,1140 -561.78,1139.99 -22.5,1139.99 "/> -->
<g>
	
		<rect x="1119.64" y="884.41" transform="matrix(0.9869 -0.1615 0.1615 0.9869 -130.7245 193.0317)" class="st0" width="5.4" height="32.89"/>
	<polygon class="st0" points="1163.71,872.83 1171.03,893.91 1149.07,877.92 1145.07,879.31 1155.87,910.37 1160.97,908.59 
		1153.65,887.52 1175.61,903.51 1179.61,902.12 1168.82,871.06 	"/>
	<path class="st0" d="M1217.44,877.23c-2.99,1.86-5.98,2.39-9.02,1.67c-3-0.74-5.4-2.56-7.21-5.47c-1.81-2.91-2.38-5.88-1.7-8.89
		c0.71-3.04,2.51-5.48,5.5-7.34c3.51-2.18,7.63-2.31,10.82-0.47l2.55-4.79c-4.95-2.62-11.08-2.35-16.15,0.79
		c-4.19,2.6-6.84,6.18-7.85,10.68c-1.04,4.46-0.31,8.76,2.24,12.87c2.55,4.11,6.08,6.67,10.57,7.76c4.46,1.04,8.84,0.26,13.03-2.34
		c2.55-1.58,4.54-3.64,5.91-6.16c1.39-2.57,2.05-5.25,1.94-8.01l-5.4,0.2C1222.94,871.38,1220.96,875.04,1217.44,877.23z"/>
	<path class="st0" d="M1252.81,816.75c-4.68-0.02-8.7,1.69-12.04,5.05c-3.34,3.37-5.03,7.39-5.01,12.11
		c0.01,4.65,1.72,8.66,5.09,12.01c3.37,3.34,7.39,5.03,12.07,5.04c4.68-0.05,8.7-1.75,12.04-5.12c3.34-3.36,5.03-7.39,5.01-12.04
		c-0.02-4.72-1.72-8.73-5.09-12.07C1261.52,818.38,1257.5,816.7,1252.81,816.75z M1261.23,842.13c-2.32,2.33-5.07,3.5-8.23,3.55
		c-3.16-0.02-5.95-1.21-8.35-3.59c-2.4-2.38-3.6-5.17-3.62-8.29c-0.01-3.19,1.15-5.95,3.46-8.28c2.32-2.33,5.07-3.5,8.23-3.48
		c3.16-0.04,5.95,1.14,8.35,3.53c2.4,2.38,3.6,5.17,3.61,8.36C1264.7,837.04,1263.55,839.8,1261.23,842.13z"/>
	<path class="st0" d="M1297.98,775.62l-1.93-1.17l-8.53,14.05l4.14,2.51l5.7-9.39c3.38,3.21,3.94,7.99,0.92,12.97
		c-1.88,3.09-4.38,5.04-7.43,5.82c-3.03,0.74-6.03,0.24-8.92-1.51c-2.89-1.75-4.71-4.18-5.5-7.24c-0.78-3.06-0.26-6.09,1.52-9.02
		c2.22-3.65,5.89-5.71,9.48-5.57l0.12-5.36c-5.52-0.05-10.91,2.94-14.1,8.2c-2.54,4.18-3.25,8.52-2.13,13.1
		c1.1,4.52,3.71,8.02,7.76,10.48c4.1,2.49,8.4,3.18,12.92,2.07c4.54-1.14,8.11-3.87,10.75-8.2c2.49-4.1,3.31-8.16,2.39-12.18
		C1304.23,781.17,1301.84,777.96,1297.98,775.62z"/>
	<polygon class="st0" points="1297.04,728.23 1318.23,735.22 1292.18,742.95 1290.86,746.96 1322.08,757.27 1323.77,752.14 
		1302.59,745.15 1328.63,737.42 1329.96,733.41 1298.74,723.1 	"/>
	
		<rect x="1317.18" y="683.57" transform="matrix(0.1439 -0.9896 0.9896 0.1439 437.186 1905.4001)" class="st0" width="5.4" height="32.88"/>
	<polygon class="st0" points="1310.87,650.24 1305.7,650.32 1306.07,674.28 1311.24,674.2 1311.1,664.9 1338.81,664.46 
		1338.73,659.06 1311.01,659.5 	"/>
	<path class="st0" d="M1336.54,628.61l-1.19-5.75l-6.95-0.91l-2.84-13.71l6.02-3.6l-1.18-5.7l-29.79,18.31l1.32,6.35L1336.54,628.61
		z M1320.94,611.02l2.12,10.21l-15.59-2.09L1320.94,611.02z"/>
	<polygon class="st0" points="984.36,302 949.94,222.49 915.52,302 949.94,284.45 	"/>
	<g>
		<rect x="1262.97" y="666.45" class="st0" width="26.13" height="2.52"/>
		
			<rect x="1277.89" y="670.48" transform="matrix(0.0813 -0.9967 0.9967 0.0813 498.4253 1898.6302)" class="st0" width="2.52" height="16.92"/>
		
			<rect x="1277.2" y="685.08" transform="matrix(0.1451 -0.9894 0.9894 0.1451 406.6451 1857.8472)" class="st0" width="2.52" height="17.05"/>
		
			<rect x="1274.78" y="698.21" transform="matrix(0.1868 -0.9824 0.9824 0.1868 343.3709 1828.39)" class="st0" width="2.52" height="17.17"/>
		
			<rect x="1271.1" y="711.36" transform="matrix(0.2943 -0.9557 0.9557 0.2943 209.9336 1723.9519)" class="st0" width="2.52" height="16.92"/>
		
			<rect x="1263.04" y="718.63" transform="matrix(0.3439 -0.939 0.939 0.3439 142.4238 1667.2334)" class="st0" width="2.52" height="26.13"/>
		
			<rect x="1261.35" y="736.91" transform="matrix(0.4192 -0.9079 0.9079 0.4192 56.6226 1579.254)" class="st0" width="2.52" height="16.92"/>
		
			<rect x="1255.65" y="750.38" transform="matrix(0.4766 -0.8791 0.8791 0.4766 -9.2821 1502.213)" class="st0" width="2.52" height="17.05"/>
		
			<rect x="1248.84" y="761.88" transform="matrix(0.5132 -0.8583 0.8583 0.5132 -52.7123 1447.9902)" class="st0" width="2.52" height="17.17"/>
		
			<rect x="1240.91" y="772.96" transform="matrix(0.605 -0.7962 0.7962 0.605 -131.5627 1297.6238)" class="st0" width="2.52" height="16.92"/>
		
			<rect x="1229.25" y="776.74" transform="matrix(0.6459 -0.7634 0.7634 0.6459 -167.2132 1219.1244)" class="st0" width="2.52" height="26.13"/>
		
			<rect x="1222.96" y="793.6" transform="matrix(0.7059 -0.7083 0.7083 0.7059 -208.0777 1102.9727)" class="st0" width="2.52" height="16.92"/>
		
			<rect x="1212.96" y="804.29" transform="matrix(0.7499 -0.6616 0.6616 0.7499 -234.0316 1006.606)" class="st0" width="2.52" height="17.05"/>
		
			<rect x="1202.59" y="812.74" transform="matrix(0.7771 -0.6294 0.6294 0.7771 -248.5832 940.7526)" class="st0" width="2.52" height="17.17"/>
		
			<rect x="1191.37" y="820.42" transform="matrix(0.842 -0.5395 0.5395 0.842 -258.732 774.4287)" class="st0" width="2.52" height="16.92"/>
		
			<rect x="1177.54" y="819.68" transform="matrix(0.8691 -0.4946 0.4946 0.8691 -257.6032 692.0969)" class="st0" width="2.52" height="26.13"/>
		
			<rect x="1167.42" y="833.63" transform="matrix(0.9065 -0.4223 0.4223 0.9065 -246.2934 572.3024)" class="st0" width="2.52" height="16.92"/>
		
			<rect x="1154.33" y="840.22" transform="matrix(0.9317 -0.3633 0.3633 0.9317 -229.3939 477.8333)" class="st0" width="2.52" height="17.05"/>
		
			<rect x="1141.66" y="844.58" transform="matrix(0.9462 -0.3236 0.3236 0.9462 -214.6045 415.8009)" class="st0" width="2.52" height="17.17"/>
		
			<rect x="1128.52" y="847.95" transform="matrix(0.9762 -0.217 0.217 0.9762 -158.9332 265.5989)" class="st0" width="2.52" height="16.92"/>
		
			<rect x="1114.21" y="842.22" transform="matrix(0.9862 -0.1656 0.1656 0.9862 -126.2073 196.4818)" class="st0" width="2.52" height="26.13"/>
		
			<rect x="1101.49" y="852.11" transform="matrix(0.9964 -0.0848 0.0848 0.9964 -68.9906 96.5913)" class="st0" width="2.52" height="16.92"/>
		
			<rect x="1086.92" y="853.8" transform="matrix(0.9998 -0.0207 0.0207 0.9998 -17.6028 22.6915)" class="st0" width="2.52" height="17.05"/>
		
			<rect x="1066.18" y="860.86" transform="matrix(0.0212 -0.9998 0.9998 0.0212 190.0173 1918.3304)" class="st0" width="17.17" height="2.52"/>
		
			<rect x="1052.85" y="859.39" transform="matrix(0.1324 -0.9912 0.9912 0.1324 67.7684 1798.7084)" class="st0" width="16.92" height="2.52"/>
		
			<rect x="1035.2" y="853.4" transform="matrix(0.1835 -0.983 0.983 0.1835 15.7783 1728.3196)" class="st0" width="26.13" height="2.52"/>
		
			<rect x="1026.03" y="854" transform="matrix(0.2625 -0.9649 0.9649 0.2625 -62.2979 1629.0078)" class="st0" width="16.92" height="2.52"/>
		
			<rect x="1011.68" y="850.62" transform="matrix(0.3245 -0.9459 0.9459 0.3245 -116.6145 1540.4806)" class="st0" width="17.05" height="2.52"/>
		
			<rect x="999.09" y="845.82" transform="matrix(0.3639 -0.9314 0.9314 0.3639 -148.0094 1477.4281)" class="st0" width="17.17" height="2.52"/>
		
			<rect x="987.1" y="839.81" transform="matrix(0.4653 -0.8852 0.8852 0.4653 -212.1334 1330.9813)" class="st0" width="16.92" height="2.52"/>
		
			<rect x="972.3" y="829.7" transform="matrix(0.5105 -0.8599 0.8599 0.5105 -232.2014 1254.022)" class="st0" width="26.13" height="2.52"/>
		
			<rect x="963.77" y="825.53" transform="matrix(0.579 -0.8154 0.8154 0.579 -264.7758 1140.8306)" class="st0" width="16.92" height="2.52"/>
		
			<rect x="951.45" y="817.45" transform="matrix(0.6302 -0.7765 0.7765 0.6302 -280.6594 1048.1835)" class="st0" width="17.05" height="2.52"/>
		
			<rect x="941.28" y="808.62" transform="matrix(0.6623 -0.7492 0.7492 0.6623 -286.0329 985.132)" class="st0" width="17.17" height="2.52"/>
		
			<rect x="932.09" y="798.81" transform="matrix(0.7415 -0.671 0.671 0.7415 -293.6773 837.942)" class="st0" width="16.92" height="2.52"/>
		
			<rect x="921.39" y="785.82" transform="matrix(0.7754 -0.6315 0.6315 0.7754 -287.1386 766.9019)" class="st0" width="26.13" height="2.52"/>
		
			<rect x="915.09" y="777.38" transform="matrix(0.8238 -0.5669 0.5669 0.8238 -278.6664 660.7656)" class="st0" width="16.92" height="2.52"/>
		
			<rect x="906.31" y="765.58" transform="matrix(0.8585 -0.5128 0.5128 0.8585 -263.7904 577.6122)" class="st0" width="17.05" height="2.52"/>
		
			<rect x="899.78" y="753.81" transform="matrix(0.8795 -0.4759 0.4759 0.8795 -249.8907 523.3327)" class="st0" width="17.17" height="2.52"/>
		
			<rect x="894.54" y="741.4" transform="matrix(0.9268 -0.3755 0.3755 0.9268 -212.8065 393.4787)" class="st0" width="16.92" height="2.52"/>
		
			<rect x="888.68" y="727.1" transform="matrix(0.9452 -0.3263 0.3263 0.9452 -188.3266 334.1581)" class="st0" width="26.13" height="2.52"/>
		
			<rect x="885.95" y="715.43" transform="matrix(0.9687 -0.2482 0.2482 0.9687 -149.9001 244.4326)" class="st0" width="16.92" height="2.52"/>
		
			<rect x="881.75" y="701.34" transform="matrix(0.9825 -0.1863 0.1863 0.9825 -115.2922 178.1278)" class="st0" width="17.05" height="2.52"/>
		
			<rect x="879.67" y="688.07" transform="matrix(0.9895 -0.1448 0.1448 0.9895 -90.4537 135.8836)" class="st0" width="17.17" height="2.52"/>
		
			<rect x="879.02" y="674.57" transform="matrix(0.9994 -0.0338 0.0338 0.9994 -22.334 30.3804)" class="st0" width="16.92" height="2.52"/>
		
			<rect x="889.96" y="648.9" transform="matrix(0.0184 -0.9998 0.9998 0.0184 212.9444 1540.8386)" class="st0" width="2.52" height="26.13"/>
		
			<rect x="887.1" y="640.03" transform="matrix(0.0997 -0.995 0.995 0.0997 154.5152 1467.7495)" class="st0" width="2.52" height="16.92"/>
		
			<rect x="888.06" y="625.32" transform="matrix(0.1633 -0.9866 0.9866 0.1633 118.7381 1407.696)" class="st0" width="2.52" height="17.05"/>
		
			<rect x="890.72" y="612.11" transform="matrix(0.2048 -0.9788 0.9788 0.2048 101.7625 1366.6387)" class="st0" width="2.52" height="17.17"/>
		
			<rect x="894.64" y="599.28" transform="matrix(0.3119 -0.9501 0.9501 0.3119 39.0674 1269.4224)" class="st0" width="2.52" height="16.92"/>
		
			<rect x="902.92" y="582.95" transform="matrix(0.3612 -0.9325 0.9325 0.3612 21.8195 1223.8722)" class="st0" width="2.52" height="26.13"/>
		
			<rect x="904.86" y="573.91" transform="matrix(0.4359 -0.9 0.9 0.4359 -12.9751 1144.038)" class="st0" width="2.52" height="16.92"/>
		
			<rect x="910.8" y="560.42" transform="matrix(0.4927 -0.8702 0.8702 0.4927 -32.3868 1082.3438)" class="st0" width="2.52" height="17.05"/>
		
			<rect x="917.83" y="548.93" transform="matrix(0.529 -0.8486 0.8486 0.529 -40.2154 1042.5717)" class="st0" width="2.52" height="17.17"/>
		
			<rect x="925.96" y="538.24" transform="matrix(0.6197 -0.7849 0.7849 0.6197 -76.4307 935.6826)" class="st0" width="2.52" height="16.92"/>
		
			<rect x="937.77" y="525.47" transform="matrix(0.6599 -0.7514 0.7514 0.6599 -85.2593 888.7222)" class="st0" width="2.52" height="26.13"/>
		
			<rect x="944.29" y="517.93" transform="matrix(0.7189 -0.6952 0.6952 0.7189 -100.0952 805.2914)" class="st0" width="2.52" height="16.92"/>
		
			<rect x="954.48" y="507.31" transform="matrix(0.7619 -0.6477 0.6477 0.7619 -106.55 741.8113)" class="st0" width="2.52" height="17.05"/>
		
			<rect x="965.01" y="498.93" transform="matrix(0.7885 -0.615 0.615 0.7885 -107.788 701.5498)" class="st0" width="2.52" height="17.17"/>
		
			<rect x="976.37" y="491.7" transform="matrix(0.8518 -0.5238 0.5238 0.8518 -117.136 586.2484)" class="st0" width="2.52" height="16.92"/>
		
			<rect x="990.27" y="483.49" transform="matrix(0.878 -0.4786 0.4786 0.878 -116.7182 535.1001)" class="st0" width="2.52" height="26.13"/>
		
			<rect x="1000.56" y="478.94" transform="matrix(0.9141 -0.4055 0.4055 0.9141 -111.5779 448.1065)" class="st0" width="2.52" height="16.92"/>
		
			<rect x="1013.77" y="472.46" transform="matrix(0.9382 -0.346 0.346 0.9382 -103.733 380.9615)" class="st0" width="2.52" height="17.05"/>
		
			<rect x="1026.52" y="468.21" transform="matrix(0.952 -0.3062 0.3062 0.952 -96.6291 337.6115)" class="st0" width="2.52" height="17.17"/>
		
			<rect x="1039.71" y="465.34" transform="matrix(0.98 -0.1989 0.1989 0.98 -73.4453 216.5385)" class="st0" width="2.52" height="16.92"/>
		
			<rect x="1054" y="462.13" transform="matrix(0.9891 -0.1473 0.1473 0.9891 -58.4935 160.6538)" class="st0" width="2.52" height="26.13"/>
		
			<rect x="1066.81" y="461.67" transform="matrix(0.9978 -0.0664 0.0664 0.9978 -28.8539 71.9416)" class="st0" width="2.52" height="16.92"/>
		
			<rect x="1081.42" y="460.13" transform="matrix(1 -2.282285e-03 2.282285e-03 1 -1.0668 2.4722)" class="st0" width="2.52" height="17.05"/>
		
			<rect x="1087.5" y="467.85" transform="matrix(0.0396 -0.9992 0.9992 0.0396 583.9232 1545.7483)" class="st0" width="17.17" height="2.52"/>
		
			<rect x="1101.05" y="469.57" transform="matrix(0.1506 -0.9886 0.9886 0.1506 476.9523 1496.7715)" class="st0" width="16.92" height="2.52"/>
		
			<rect x="1109.38" y="475.79" transform="matrix(0.2019 -0.9794 0.9794 0.2019 428.6289 1480.0831)" class="st0" width="26.13" height="2.52"/>
		
			<rect x="1127.76" y="475.45" transform="matrix(0.281 -0.9597 0.9597 0.281 359.4798 1433.2236)" class="st0" width="16.92" height="2.52"/>
		
			<rect x="1141.92" y="479.08" transform="matrix(0.3416 -0.9398 0.9398 0.3416 306.0139 1397.5063)" class="st0" width="17.05" height="2.52"/>
		
			<rect x="1154.3" y="484.12" transform="matrix(0.3812 -0.9245 0.9245 0.3812 270.8728 1375.442)" class="st0" width="17.17" height="2.52"/>
		
			<rect x="1166.43" y="490.35" transform="matrix(0.4809 -0.8768 0.8768 0.4809 178.8697 1285.3322)" class="st0" width="16.92" height="2.52"/>
		
			<rect x="1171.83" y="500.65" transform="matrix(0.5265 -0.8502 0.8502 0.5265 134.3247 1244.9961)" class="st0" width="26.13" height="2.52"/>
		
			<rect x="1189.49" y="505.06" transform="matrix(0.5935 -0.8048 0.8048 0.5935 79.4661 1169.9783)" class="st0" width="16.92" height="2.52"/>
		
			<rect x="1201.53" y="513.37" transform="matrix(0.6442 -0.7649 0.7649 0.6442 36.9473 1108.6737)" class="st0" width="17.05" height="2.52"/>
		
			<rect x="1211.42" y="522.37" transform="matrix(0.6755 -0.7373 0.7373 0.6755 9.7467 1069.4178)" class="st0" width="17.17" height="2.52"/>
		
			<rect x="1220.67" y="532.36" transform="matrix(0.7528 -0.6582 0.6582 0.7528 -47.4202 940.9551)" class="st0" width="16.92" height="2.52"/>
		
			<rect x="1221.93" y="545.46" transform="matrix(0.7865 -0.6176 0.6176 0.7865 -73.9721 879.4735)" class="st0" width="26.13" height="2.52"/>
		
			<rect x="1237.27" y="554.1" transform="matrix(0.8347 -0.5507 0.5507 0.8347 -99.9271 777.7905)" class="st0" width="16.92" height="2.52"/>
		
			<rect x="1245.71" y="566.06" transform="matrix(0.8681 -0.4963 0.4963 0.8681 -116.1846 697.352)" class="st0" width="17.05" height="2.52"/>
		
			<rect x="1251.89" y="577.94" transform="matrix(0.8882 -0.4595 0.4595 0.8882 -125.1911 644.0006)" class="st0" width="17.17" height="2.52"/>
		
			<rect x="1257.16" y="590.45" transform="matrix(0.9333 -0.359 0.359 0.9333 -128.0607 493.8681)" class="st0" width="16.92" height="2.52"/>
		
			<rect x="1253.55" y="604.78" transform="matrix(0.9511 -0.309 0.309 0.9511 -125.2749 421.0079)" class="st0" width="26.12" height="2.52"/>
		
			<rect x="1265.26" y="616.58" transform="matrix(0.9732 -0.2298 0.2298 0.9732 -107.8895 309.2262)" class="st0" width="16.92" height="2.52"/>
		
			<rect x="1269.08" y="630.74" transform="matrix(0.9858 -0.168 0.168 0.9858 -88.0164 223.6176)" class="st0" width="17.05" height="2.52"/>
		
			<rect x="1270.79" y="644.04" transform="matrix(0.9921 -0.1256 0.1256 0.9921 -70.9085 165.7726)" class="st0" width="17.17" height="2.52"/>
		
			<rect x="1271.41" y="655.64" transform="matrix(0.9964 -0.085 0.085 0.9964 -51.1842 111.1193)" class="st0" width="16.98" height="2.52"/>
	</g>
	<path class="st0" d="M947.29,337.57c-53.16,0-101.89,19.2-139.66,51.07c1.67,1.27,3.31,2.61,4.86,4.03
		c36.58-30.5,83.59-48.88,134.8-48.88c116.23,0,210.77,94.54,210.77,210.77c0,116.2-94.54,210.74-210.77,210.74
		c-116.2,0-210.74-94.54-210.74-210.74c0-15.06,1.59-29.75,4.61-43.92c-1.99-0.72-3.93-1.54-5.83-2.46c-3.29,14.94-5,30.48-5,46.39
		c0,119.64,97.33,216.97,216.97,216.97c119.66,0,216.99-97.33,216.99-216.97C1164.28,434.9,1066.95,337.57,947.29,337.57z"/>
	<g>
		<path class="st0" d="M858.03,446.85l126.84,122.09c8.1,7.82,15.09,15.93,21.79,24.31V454.68h29.89v207.58L907.21,537.93
			c-7.27-6.98-13.69-14.53-19.28-22.35v138.85h-29.89V446.85z"/>
	</g>
	<g>
		<path class="st0" d="M765.37,518.05c-40.43,0-73.33-32.89-73.33-73.33s32.89-73.33,73.33-73.33s73.33,32.9,73.33,73.33
			S805.8,518.05,765.37,518.05z M765.37,377.62c-37,0-67.1,30.1-67.1,67.1s30.1,67.1,67.1,67.1s67.1-30.1,67.1-67.1
			S802.37,377.62,765.37,377.62z"/>
	</g>
	<circle class="st0" cx="729.5" cy="407.49" r="4.48"/>
	<circle class="st0" cx="801.36" cy="482.1" r="4.48"/>
	<circle class="st0" cx="801.36" cy="407.49" r="4.48"/>
	<circle class="st0" cx="729.5" cy="482.1" r="4.48"/>
	<g>
		<path class="st0" d="M812.33,444.81l-30.16-8.43l10.44-18.72l-18.75,10.44l-8.49-30.54l-8.42,30.55l-18.81-10.56l10.52,18.83
			l-30.13,8.4l30.16,8.43l-10.44,18.72l18.75-10.44l8.49,30.54l8.42-30.55l18.81,10.56l-10.52-18.83L812.33,444.81z M785.51,424.71
			l-6.23,11.09l-4.28-0.78l-0.78-4.04L785.51,424.71z M745.27,424.62l11.09,6.23l-0.78,4.28l-4.04,0.78L745.27,424.62z
			 M745.34,464.88l6.23-11.09l4.28,0.78l0.78,4.04L745.34,464.88z M733.35,444.72l24.74-7.43l7.28,7.43H733.35z M765.43,444.8v32.01
			l-7.43-24.74L765.43,444.8v-32.01l7.43,24.74L765.43,444.8z M772.76,452.3l-7.28-7.43h32.01L772.76,452.3z M785.58,464.97
			l-11.09-6.23l0.78-4.28l4.04-0.78L785.58,464.97z"/>
	</g>
</g>
<g>
	<polygon class="st0" points="-1057.2,254.45 -1096.89,162.77 -1136.57,254.45 -1096.89,234.21 	"/>
	<g>
		<rect x="-735.97" y="674.64" class="st0" width="30.12" height="2.9"/>
		
			<rect x="-718.77" y="679.28" transform="matrix(0.0813 -0.9967 0.9967 0.0813 -1345.7318 -81.9455)" class="st0" width="2.9" height="19.51"/>
		
			<rect x="-719.57" y="696.11" transform="matrix(0.1451 -0.9894 0.9894 0.1451 -1312.3486 -107.0333)" class="st0" width="2.9" height="19.65"/>
		
			<rect x="-722.36" y="711.26" transform="matrix(0.1868 -0.9824 0.9824 0.1868 -1294.7522 -121.7439)" class="st0" width="2.91" height="19.79"/>
		
			<rect x="-726.6" y="726.42" transform="matrix(0.2943 -0.9557 0.9557 0.2943 -1215.2802 -173.5354)" class="st0" width="2.9" height="19.51"/>
		
			<rect x="-735.9" y="734.81" transform="matrix(0.3439 -0.939 0.939 0.3439 -1185.9865 -197.6662)" class="st0" width="2.9" height="30.12"/>
		
			<rect x="-737.85" y="755.88" transform="matrix(0.4192 -0.9079 0.9079 0.4192 -1122.8392 -223.8787)" class="st0" width="2.9" height="19.51"/>
		
			<rect x="-744.41" y="771.41" transform="matrix(0.4766 -0.8791 0.8791 0.4766 -1075.6827 -244.2445)" class="st0" width="2.91" height="19.65"/>
		
			<rect x="-752.27" y="784.67" transform="matrix(0.5132 -0.8583 0.8583 0.5132 -1047.4541 -257.6073)" class="st0" width="2.9" height="19.79"/>
		
			<rect x="-761.41" y="797.44" transform="matrix(0.605 -0.7962 0.7962 0.605 -942.8313 -286.2686)" class="st0" width="2.9" height="19.51"/>
		
			<rect x="-774.85" y="801.8" transform="matrix(0.6459 -0.7634 0.7634 0.6459 -897.5165 -301.1738)" class="st0" width="2.91" height="30.12"/>
		
			<rect x="-782.11" y="821.24" transform="matrix(0.7059 -0.7083 0.7083 0.7059 -818.1631 -308.5516)" class="st0" width="2.91" height="19.51"/>
		
			<rect x="-793.63" y="833.56" transform="matrix(0.7499 -0.6616 0.6616 0.7499 -756.1111 -313.1389)" class="st0" width="2.9" height="19.65"/>
		
			<rect x="-805.59" y="843.3" transform="matrix(0.7771 -0.6294 0.6294 0.7771 -716.2348 -315.9318)" class="st0" width="2.9" height="19.79"/>
		
			<rect x="-818.53" y="852.17" transform="matrix(0.842 -0.5395 0.5395 0.842 -594.1414 -304.6232)" class="st0" width="2.9" height="19.51"/>
		
			<rect x="-834.47" y="851.31" transform="matrix(0.8691 -0.4946 0.4946 0.8691 -537.5931 -298.6369)" class="st0" width="2.9" height="30.12"/>
		
			<rect x="-846.14" y="867.39" transform="matrix(0.9065 -0.4223 0.4223 0.9065 -449.4352 -274.662)" class="st0" width="2.9" height="19.51"/>
		
			<rect x="-861.23" y="874.99" transform="matrix(0.9317 -0.3633 0.3633 0.9317 -380.2133 -251.9053)" class="st0" width="2.9" height="19.65"/>
		
			<rect x="-875.84" y="880.02" transform="matrix(0.9462 -0.3236 0.3236 0.9462 -335.0638 -235.0875)" class="st0" width="2.9" height="19.79"/>
		
			<rect x="-890.98" y="883.9" transform="matrix(0.9762 -0.217 0.217 0.9762 -215.1433 -171.7488)" class="st0" width="2.91" height="19.51"/>
		
			<rect x="-907.49" y="877.29" transform="matrix(0.9862 -0.1656 0.1656 0.9862 -160.2429 -137.6888)" class="st0" width="2.9" height="30.12"/>
		
			<rect x="-922.15" y="888.7" transform="matrix(0.9964 -0.0848 0.0848 0.9964 -79.4877 -74.8238)" class="st0" width="2.9" height="19.51"/>
		
			<rect x="-938.95" y="890.64" transform="matrix(0.9998 -0.0207 0.0207 0.9998 -18.8252 -19.198)" class="st0" width="2.9" height="19.65"/>
		
			<rect x="-962.87" y="898.78" transform="matrix(0.0212 -0.9998 0.9998 0.0212 -1832.7754 -71.635)" class="st0" width="19.79" height="2.91"/>
		
			<rect x="-978.23" y="897.09" transform="matrix(0.1324 -0.9912 0.9912 0.1324 -1730.9316 -180.3457)" class="st0" width="19.51" height="2.9"/>
		
			<rect x="-998.59" y="890.19" transform="matrix(0.1835 -0.983 0.983 0.1835 -1679.5822 -238.7822)" class="st0" width="30.12" height="2.9"/>
		
			<rect x="-1009.15" y="890.87" transform="matrix(0.2625 -0.9649 0.9649 0.2625 -1598.1359 -306.2385)" class="st0" width="19.51" height="2.91"/>
		
			<rect x="-1025.7" y="886.99" transform="matrix(0.3245 -0.9459 0.9459 0.3245 -1526.6162 -360.7409)" class="st0" width="19.65" height="2.9"/>
		
			<rect x="-1040.21" y="881.44" transform="matrix(0.3639 -0.9314 0.9314 0.3639 -1477.7605 -398.0595)" class="st0" width="19.79" height="2.9"/>
		
			<rect x="-1054.04" y="874.52" transform="matrix(0.4653 -0.8852 0.8852 0.4653 -1333.7949 -455.9669)" class="st0" width="19.51" height="2.9"/>
		
			<rect x="-1071.11" y="862.86" transform="matrix(0.5105 -0.8599 0.8599 0.5105 -1260.1162 -484.9921)" class="st0" width="30.12" height="2.9"/>
		
			<rect x="-1080.94" y="858.05" transform="matrix(0.579 -0.8154 0.8154 0.579 -1151.822 -511.5145)" class="st0" width="19.51" height="2.91"/>
		
			<rect x="-1095.14" y="848.73" transform="matrix(0.6302 -0.7765 0.7765 0.6302 -1061.5394 -528.2767)" class="st0" width="19.65" height="2.9"/>
		
			<rect x="-1106.87" y="838.56" transform="matrix(0.6623 -0.7492 0.7492 0.6623 -999.7742 -538.2198)" class="st0" width="19.79" height="2.9"/>
		
			<rect x="-1117.47" y="827.25" transform="matrix(0.7415 -0.671 0.671 0.7415 -842.4296 -529.0175)" class="st0" width="19.51" height="2.9"/>
		
			<rect x="-1129.81" y="812.26" transform="matrix(0.7754 -0.6315 0.6315 0.7754 -764.2623 -521.1818)" class="st0" width="30.12" height="2.9"/>
		
			<rect x="-1137.06" y="802.54" transform="matrix(0.8238 -0.5669 0.5669 0.8238 -654.423 -497.3953)" class="st0" width="19.51" height="2.9"/>
		
			<rect x="-1147.19" y="788.93" transform="matrix(0.8585 -0.5128 0.5128 0.8585 -566.2214 -471.4027)" class="st0" width="19.65" height="2.9"/>
		
			<rect x="-1154.71" y="775.37" transform="matrix(0.8795 -0.4759 0.4759 0.8795 -507.6957 -451.2405)" class="st0" width="19.79" height="2.9"/>
		
			<rect x="-1160.76" y="761.05" transform="matrix(0.9268 -0.3755 0.3755 0.9268 -370.6071 -376.4465)" class="st0" width="19.51" height="2.9"/>
		
			<rect x="-1167.52" y="744.56" transform="matrix(0.9452 -0.3263 0.3263 0.9452 -306.5573 -335.2576)" class="st0" width="30.12" height="2.9"/>
		
			<rect x="-1170.66" y="731.11" transform="matrix(0.9687 -0.2482 0.2482 0.9687 -218.1602 -265.2266)" class="st0" width="19.51" height="2.9"/>
		
			<rect x="-1175.5" y="714.87" transform="matrix(0.9825 -0.1863 0.1863 0.9825 -153.8296 -204.5927)" class="st0" width="19.65" height="2.9"/>
		
			<rect x="-1177.9" y="699.57" transform="matrix(0.9895 -0.1448 0.1448 0.9895 -113.8173 -161.7379)" class="st0" width="19.79" height="2.9"/>
		
			<rect x="-1178.65" y="684" transform="matrix(0.9994 -0.0338 0.0338 0.9994 -23.8341 -39.1137)" class="st0" width="19.51" height="2.9"/>
		
			<rect x="-1166.04" y="654.41" transform="matrix(0.0184 -0.9998 0.9998 0.0184 -1812.483 -507.2521)" class="st0" width="2.9" height="30.12"/>
		
			<rect x="-1169.34" y="644.17" transform="matrix(0.0997 -0.995 0.995 0.0997 -1702.1019 -573.3462)" class="st0" width="2.9" height="19.51"/>
		
			<rect x="-1168.23" y="627.22" transform="matrix(0.1633 -0.9866 0.9866 0.1633 -1604.7102 -618.1136)" class="st0" width="2.9" height="19.65"/>
		
			<rect x="-1165.16" y="611.98" transform="matrix(0.2048 -0.9788 0.9788 0.2048 -1534.0645 -644.5265)" class="st0" width="2.9" height="19.79"/>
		
			<rect x="-1160.64" y="597.2" transform="matrix(0.3119 -0.9501 0.9501 0.3119 -1374.3517 -683.7134)" class="st0" width="2.9" height="19.51"/>
		
			<rect x="-1151.1" y="578.37" transform="matrix(0.3612 -0.9325 0.9325 0.3612 -1287.7635 -692.9493)" class="st0" width="2.9" height="30.12"/>
		
			<rect x="-1148.85" y="567.94" transform="matrix(0.4359 -0.9 0.9 0.4359 -1167.1987 -706.7766)" class="st0" width="2.9" height="19.51"/>
		
			<rect x="-1142.01" y="552.4" transform="matrix(0.4927 -0.8702 0.8702 0.4927 -1067.9038 -707.2963)" class="st0" width="2.9" height="19.65"/>
		
			<rect x="-1133.9" y="539.14" transform="matrix(0.529 -0.8486 0.8486 0.529 -999.3428 -702.4287)" class="st0" width="2.9" height="19.79"/>
		
			<rect x="-1124.53" y="526.82" transform="matrix(0.6197 -0.7849 0.7849 0.6197 -848.2924 -677.3867)" class="st0" width="2.9" height="19.51"/>
		
			<rect x="-1110.91" y="512.1" transform="matrix(0.6599 -0.7514 0.7514 0.6599 -773.4379 -654.3181)" class="st0" width="2.9" height="30.12"/>
		
			<rect x="-1103.4" y="503.41" transform="matrix(0.7189 -0.6952 0.6952 0.7189 -666.5266 -621.7523)" class="st0" width="2.9" height="19.51"/>
		
			<rect x="-1091.65" y="491.16" transform="matrix(0.7619 -0.6477 0.6477 0.7619 -584.0232 -586.8094)" class="st0" width="2.9" height="19.65"/>
		
			<rect x="-1079.5" y="481.5" transform="matrix(0.7885 -0.615 0.615 0.7885 -530.1536 -559.0673)" class="st0" width="2.9" height="19.79"/>
		
			<rect x="-1066.41" y="473.16" transform="matrix(0.8518 -0.5238 0.5238 0.8518 -410.7911 -486.315)" class="st0" width="2.9" height="19.51"/>
		
			<rect x="-1050.39" y="463.7" transform="matrix(0.878 -0.4786 0.4786 0.878 -357.0639 -443.6252)" class="st0" width="2.9" height="30.12"/>
		
			<rect x="-1038.52" y="458.44" transform="matrix(0.9141 -0.4055 0.4055 0.9141 -278.9425 -380.3088)" class="st0" width="2.9" height="19.51"/>
		
			<rect x="-1023.3" y="450.98" transform="matrix(0.9382 -0.346 0.346 0.9382 -222.5931 -325.135)" class="st0" width="2.9" height="19.65"/>
		
			<rect x="-1008.59" y="446.08" transform="matrix(0.952 -0.3062 0.3062 0.952 -187.9998 -286.4888)" class="st0" width="2.9" height="19.79"/>
		
			<rect x="-993.39" y="442.77" transform="matrix(0.98 -0.1989 0.1989 0.98 -109.8391 -188.2731)" class="st0" width="2.91" height="19.51"/>
		
			<rect x="-976.91" y="439.06" transform="matrix(0.9891 -0.1473 0.1473 0.9891 -77.5499 -138.7568)" class="st0" width="2.9" height="30.12"/>
		
			<rect x="-962.13" y="438.54" transform="matrix(0.9978 -0.0664 0.0664 0.9978 -31.8794 -62.7864)" class="st0" width="2.91" height="19.51"/>
		
			<rect x="-945.3" y="436.76" transform="matrix(1 -2.282285e-03 2.282285e-03 1 -1.0217 -2.153)" class="st0" width="2.9" height="19.65"/>
		
			<rect x="-938.28" y="445.66" transform="matrix(0.0396 -0.9992 0.9992 0.0396 -1338.3575 -498.2555)" class="st0" width="19.79" height="2.9"/>
		
			<rect x="-922.66" y="447.64" transform="matrix(0.1506 -0.9886 0.9886 0.1506 -1219.3923 -521.0364)" class="st0" width="19.51" height="2.9"/>
		
			<rect x="-913.05" y="454.82" transform="matrix(0.2019 -0.9794 0.9794 0.2019 -1163.5891 -515.3439)" class="st0" width="30.12" height="2.9"/>
		
			<rect x="-891.86" y="454.42" transform="matrix(0.281 -0.9597 0.9597 0.281 -1071.7799 -518.785)" class="st0" width="19.51" height="2.9"/>
		
			<rect x="-875.54" y="458.61" transform="matrix(0.3416 -0.9398 0.9398 0.3416 -1002.3904 -510.7275)" class="st0" width="19.65" height="2.91"/>
		
			<rect x="-861.27" y="464.42" transform="matrix(0.3812 -0.9245 0.9245 0.3812 -957.5409 -498.8018)" class="st0" width="19.79" height="2.91"/>
		
			<rect x="-847.28" y="471.61" transform="matrix(0.4809 -0.8768 0.8768 0.4809 -849.5481 -488.7579)" class="st0" width="19.51" height="2.9"/>
		
			<rect x="-841.05" y="483.47" transform="matrix(0.5265 -0.8502 0.8502 0.5265 -803.3531 -472.6218)" class="st0" width="30.12" height="2.9"/>
		
			<rect x="-820.69" y="488.57" transform="matrix(0.5935 -0.8048 0.8048 0.5935 -724.0357 -453.478)" class="st0" width="19.51" height="2.91"/>
		
			<rect x="-806.81" y="498.14" transform="matrix(0.6442 -0.7649 0.7649 0.6442 -665.728 -431.831)" class="st0" width="19.65" height="2.9"/>
		
			<rect x="-795.41" y="508.53" transform="matrix(0.6755 -0.7373 0.7373 0.6755 -630.8756 -413.7084)" class="st0" width="19.79" height="2.9"/>
		
			<rect x="-784.74" y="520.04" transform="matrix(0.7528 -0.6582 0.6582 0.7528 -534.8239 -381.2168)" class="st0" width="19.51" height="2.9"/>
		
			<rect x="-783.29" y="535.15" transform="matrix(0.7865 -0.6176 0.6176 0.7865 -495.4367 -359.8957)" class="st0" width="30.12" height="2.91"/>
		
			<rect x="-765.61" y="545.11" transform="matrix(0.8347 -0.5507 0.5507 0.8347 -425.9094 -325.8964)" class="st0" width="19.51" height="2.9"/>
		
			<rect x="-755.87" y="558.9" transform="matrix(0.8681 -0.4963 0.4963 0.8681 -376.5121 -296.4002)" class="st0" width="19.65" height="2.9"/>
		
			<rect x="-748.74" y="572.59" transform="matrix(0.8882 -0.4595 0.4595 0.8882 -346.42 -275.3217)" class="st0" width="19.79" height="2.9"/>
		
			<rect x="-742.67" y="587.02" transform="matrix(0.9333 -0.359 0.359 0.9333 -260.158 -223.9107)" class="st0" width="19.5" height="2.9"/>
		
			<rect x="-746.83" y="603.53" transform="matrix(0.9511 -0.309 0.309 0.9511 -222.7322 -196.4988)" class="st0" width="30.12" height="2.9"/>
		
			<rect x="-733.33" y="617.14" transform="matrix(0.9732 -0.2298 0.2298 0.9732 -161.5115 -149.7183)" class="st0" width="19.51" height="2.9"/>
		
			<rect x="-728.93" y="633.46" transform="matrix(0.9858 -0.168 0.168 0.9858 -116.8858 -111.7855)" class="st0" width="19.65" height="2.9"/>
		
			<rect x="-726.96" y="648.8" transform="matrix(0.9921 -0.1256 0.1256 0.9921 -87.3355 -84.9008)" class="st0" width="19.79" height="2.9"/>
		
			<rect x="-726.24" y="662.18" transform="matrix(0.9964 -0.085 0.085 0.9964 -58.9746 -58.4727)" class="st0" width="19.57" height="2.9"/>
	</g>
	<path class="st0" d="M-1099.94,295.46c-61.29,0-117.47,22.13-161.02,58.88c1.92,1.46,3.82,3.01,5.6,4.65
		c42.17-35.17,96.37-56.35,155.42-56.35c134.01,0,243.01,109,243.01,243.01c0,133.98-109,242.98-243.01,242.98
		c-133.98,0-242.98-109-242.98-242.98c0-17.37,1.84-34.31,5.31-50.64c-2.3-0.83-4.54-1.78-6.72-2.84
		c-3.79,17.22-5.77,35.14-5.77,53.48c0,137.94,112.22,250.15,250.15,250.15c137.97,0,250.18-112.22,250.18-250.15
		C-849.76,407.67-961.97,295.46-1099.94,295.46z"/>
	<path class="st0" d="M-1119.35,385.52c0,0,51.59,222.34,52.87,234.65l86.4-134.39l28.99,18.64l-129.43,201.32
		c0,0-52.15-223.86-52.69-234.93l-86.58,134.66l-28.99-18.64L-1119.35,385.52z"/>
	<g>
		<path class="st0" d="M-1309.69,503.54c-46.62,0-84.54-37.93-84.54-84.54s37.93-84.55,84.54-84.55s84.55,37.93,84.55,84.55
			S-1263.07,503.54-1309.69,503.54z M-1309.69,341.63c-42.66,0-77.37,34.71-77.37,77.37s34.71,77.37,77.37,77.37
			s77.37-34.71,77.37-77.37S-1267.03,341.63-1309.69,341.63z"/>
	</g>
	<circle class="st0" cx="-1351.05" cy="376.07" r="5.16"/>
	<circle class="st0" cx="-1268.2" cy="462.09" r="5.16"/>
	<circle class="st0" cx="-1268.2" cy="376.07" r="5.16"/>
	<circle class="st0" cx="-1351.05" cy="462.09" r="5.16"/>
	<g>
		<path class="st0" d="M-1255.55,419.09l-34.77-9.72l12.04-21.58l-21.62,12.04l-9.79-35.21l-9.71,35.22l-21.69-12.17l12.13,21.72
			l-34.74,9.69l34.77,9.72l-12.04,21.58l21.62-12.04l9.79,35.21l9.71-35.22l21.69,12.17l-12.13-21.72L-1255.55,419.09z
			 M-1286.47,395.92l-7.18,12.79l-4.93-0.89l-0.89-4.66L-1286.47,395.92z M-1332.86,395.83l12.79,7.18l-0.89,4.93l-4.66,0.89
			L-1332.86,395.83z M-1332.78,442.24l7.18-12.79l4.93,0.89l0.89,4.66L-1332.78,442.24z M-1346.6,419l28.52-8.57l8.39,8.57H-1346.6z
			 M-1309.62,419.08v36.91l-8.57-28.52L-1309.62,419.08v-36.91l8.57,28.52L-1309.62,419.08z M-1301.16,427.73l-8.39-8.57h36.91
			L-1301.16,427.73z M-1286.38,442.34l-12.79-7.18l0.89-4.93l4.66-0.89L-1286.38,442.34z"/>
	</g>
	<g>
		<path class="st0" d="M-1024.33,925.04l8.57,2.69l-11.78,37.46l-8.56-2.69L-1024.33,925.04z"/>
		<path class="st0" d="M-968.51,937.14l8.9,1.15l-5.03,38.94l-6.68-0.86l-12.29-23.08l-2.73,21.14l-8.9-1.15l5.03-38.94l6.68,0.86
			l12.29,23.08L-968.51,937.14z"/>
		<path class="st0" d="M-926.68,972.64c-4.21-3.56-6.55-8.25-7.07-14.01c-0.52-5.75,0.94-10.79,4.45-14.99
			c3.5-4.26,8.19-6.65,14.05-7.18c6.98-0.63,13.67,2.26,17.58,7.54l-7.31,5.17c-2.01-2.92-5.52-4.35-9.48-3.99
			c-3.46,0.31-6.16,1.62-8.04,3.94c-1.88,2.31-2.63,5.19-2.32,8.71c0.32,3.52,1.57,6.22,3.83,8.16c2.26,1.94,5.15,2.75,8.61,2.43
			c3.97-0.36,7.27-2.51,8.62-5.62l8.11,3.78c-2.85,5.89-8.85,9.92-15.95,10.56C-917.43,977.66-922.47,976.14-926.68,972.64z"/>
		<path class="st0" d="M-845.92,963.45c-5.39,1.75-10.58,1.38-15.58-1.12c-5-2.5-8.36-6.48-10.15-11.97
			c-1.79-5.49-1.41-10.69,1.15-15.65c2.58-4.96,6.55-8.33,11.94-10.08c5.38-1.76,10.58-1.38,15.58,1.12c5,2.5,8.36,6.47,10.15,11.97
			c1.79,5.49,1.42,10.68-1.16,15.65C-836.56,958.33-840.54,961.7-845.92,963.45z M-848.63,955.13c3.09-1.01,5.32-2.85,6.72-5.61
			c1.4-2.76,1.6-5.77,0.54-9.02c-1.06-3.25-2.99-5.57-5.75-6.97c-2.76-1.4-5.65-1.58-8.74-0.57c-3.09,1.01-5.38,2.87-6.78,5.63
			c-1.4,2.76-1.55,5.75-0.49,9c1.06,3.25,2.94,5.59,5.7,6.99C-854.67,955.98-851.73,956.14-848.63,955.13z"/>
		<path class="st0" d="M-775.09,903.26l1.76,2.86c3.08,5.01,3.95,9.95,2.7,14.87c-1.28,4.87-4.29,8.76-9.06,11.7
			c-5.21,3.21-10.53,4.18-16.02,2.95c-5.45-1.26-9.7-4.31-12.7-9.18c-3-4.87-3.85-10.01-2.55-15.49c1.3-5.48,4.43-9.71,9.35-12.73
			c6.25-3.85,13.63-4.18,19.32-1.36l-4.2,7.72c-2.89-1.38-6.95-1.12-10.58,1.11c-2.82,1.74-4.62,4.16-5.34,7.17
			c-0.71,3.01-0.12,6,1.67,8.91c1.79,2.92,4.19,4.67,7.24,5.35c3.03,0.64,6.12-0.02,9.32-1.98c4.44-2.73,6.2-6.19,5.38-10.42
			l-8.93,5.49l-4.12-6.69L-775.09,903.26z"/>
		<path class="st0" d="M-750.02,857.77l6.39-6.3l27.58,27.94l-4.79,4.73l-25.75-4.53l14.97,15.17l-6.39,6.3l-27.58-27.94l4.79-4.73
			l25.75,4.53L-750.02,857.77z"/>
		<path class="st0" d="M-727.23,830.71l5.2-7.31l32,22.74l-5.2,7.31L-727.23,830.71z"/>
		<path class="st0" d="M-696.22,777.19l7.75,3.82l-4.47,9.06l27.47,13.55l-3.97,8.05l-27.47-13.55l-4.46,9.05l-7.75-3.82
			L-696.22,777.19z"/>
		<path class="st0" d="M-644.37,744.09l-6.47,0.28l-3.82,14.08l5.44,3.51l-2.57,9.48l-34.41-23.17l3-11.04l41.4-2.61L-644.37,744.09
			z M-662.08,753.65l2.41-8.88l-15.12,0.67L-662.08,753.65z"/>
		<path class="st0" d="M-677.06,641.16l8.61-0.58l0.69,10.07l30.54-2.06l0.6,8.95l-30.55,2.06l0.68,10.07l-8.61,0.58L-677.06,641.16
			z"/>
		<path class="st0" d="M-653.7,601.61l-3.93-15.21l8.37-2.16l6.17,23.9l-38.02,9.81l-6.1-23.63l8.36-2.16l3.85,14.94l6.3-1.63
			l-3.5-13.58l8.26-2.13l3.5,13.58L-653.7,601.61z"/>
		<path class="st0" d="M-666.4,552.58c-1.82,5.21-5.36,9.07-10.55,11.62c-5.19,2.55-10.41,2.98-15.59,1.21
			c-5.23-1.74-9.15-5.26-11.74-10.55c-3.09-6.3-2.79-13.57,0.74-19.12l7.44,4.97c-2,2.92-2.08,6.71-0.32,10.29
			c1.53,3.12,3.72,5.17,6.56,6.09c2.83,0.92,5.79,0.59,8.96-0.96c3.18-1.56,5.24-3.7,6.25-6.5c1-2.8,0.72-5.79-0.82-8.91
			c-1.75-3.58-4.95-5.88-8.34-6.03l0.62-8.93c6.52,0.55,12.44,4.71,15.58,11.11C-665.01,542.15-664.63,547.4-666.4,552.58z"/>
		<path class="st0" d="M-737.07,503.27l-5.6-7.02l30.7-24.49l5.6,7.02l-12.19,9.73l7.7,9.65l12.19-9.73l5.6,7.02l-30.7,24.49
			l-5.6-7.02l11.76-9.37l-7.7-9.65L-737.07,503.27z"/>
	</g>
	<g>
		<path class="st0" d="M-985.74,821.01l-2.28,5.74l-8.1-3.22l-9.56,24.09l-7.25-2.88l9.56-24.09l-8.01-3.18l2.28-5.74
			L-985.74,821.01z"/>
		<path class="st0" d="M-966.79,831.24l-1.02,6.64l10.72,1.64l-0.88,5.79l-10.72-1.64l-1.08,7.04l12.07,1.85l-0.94,6.15l-19.74-3.02
			l4.86-31.72l19.74,3.02l-0.94,6.1L-966.79,831.24z"/>
		<path class="st0" d="M-915.54,828.39c2.87,1.89,4.87,4.62,6,8.18l-8.18,0.78c-0.74-1.42-1.78-2.49-3.11-3.21
			c-1.33-0.73-2.86-1.01-4.58-0.84c-2.26,0.22-4,1.22-5.22,3.01c-1.23,1.79-1.71,4.07-1.45,6.84c0.26,2.77,1.17,4.91,2.71,6.42
			c1.54,1.51,3.44,2.16,5.7,1.94c1.72-0.16,3.16-0.73,4.33-1.69c1.17-0.96,1.99-2.2,2.45-3.7l8.18-0.78
			c-0.44,3.69-1.89,6.74-4.35,9.14c-2.46,2.41-5.72,3.81-9.79,4.19c-3.1,0.3-5.89-0.13-8.37-1.28c-2.48-1.15-4.47-2.89-5.99-5.24
			c-1.51-2.35-2.42-5.1-2.72-8.26c-0.31-3.16,0.07-6.04,1.11-8.63c1.05-2.59,2.68-4.69,4.9-6.28c2.22-1.59,4.88-2.54,7.98-2.83
			C-921.88,825.76-918.41,826.51-915.54,828.39z"/>
		<path class="st0" d="M-872.05,811.78l11.58,29.93l-7.28,2.82l-4.84-12.49l-11.34,4.39l4.83,12.49l-7.23,2.8l-11.58-29.93l7.24-2.8
			l4.49,11.6l11.34-4.39l-4.48-11.6L-872.05,811.78z"/>
		<path class="st0" d="M-817.69,813.55l-6.21,4.66l-22.21-7.95l11.83,15.75l-6.21,4.66l-19.27-25.65l6.2-4.66l22.32,8.1
			l-11.95-15.89l6.21-4.66L-817.69,813.55z"/>
		<path class="st0" d="M-811.52,760.29c2.61-1.12,5.34-1.5,8.19-1.13c2.85,0.37,5.53,1.5,8.04,3.4c2.51,1.9,4.33,4.18,5.47,6.84
			c1.14,2.66,1.53,5.4,1.16,8.21c-0.36,2.82-1.45,5.42-3.25,7.81c-1.8,2.39-4.01,4.15-6.62,5.27c-2.6,1.12-5.34,1.5-8.22,1.13
			c-2.87-0.37-5.56-1.5-8.07-3.39c-2.51-1.9-4.33-4.17-5.46-6.82c-1.12-2.65-1.51-5.38-1.14-8.2c0.36-2.82,1.45-5.42,3.25-7.81
			C-816.35,763.17-814.13,761.41-811.52,760.29z M-814.09,776.26c0.42,2.19,1.76,4.14,4.02,5.85c2.25,1.7,4.48,2.45,6.72,2.26
			c2.23-0.19,4.11-1.3,5.64-3.33c1.52-2,2.07-4.11,1.65-6.32c-0.42-2.21-1.75-4.16-3.99-5.86s-4.48-2.45-6.72-2.25
			c-2.23,0.19-4.11,1.3-5.64,3.33C-813.94,771.96-814.5,774.07-814.09,776.26z"/>
		<path class="st0" d="M-775.04,743.94l4.04-9.53l5.47,2.32l-7.07,16.67l-29.54-12.53l3.03-7.15L-775.04,743.94z"/>
		<path class="st0" d="M-785.79,689.33c1.77-2.22,4-3.84,6.68-4.86c2.69-1.02,5.59-1.29,8.7-0.8c3.11,0.48,5.79,1.63,8.05,3.44
			c2.26,1.81,3.89,4.04,4.9,6.69c1.01,2.65,1.29,5.46,0.82,8.42c-0.46,2.96-1.57,5.55-3.34,7.77c-1.77,2.22-4.01,3.84-6.71,4.88
			c-2.7,1.03-5.61,1.31-8.72,0.82c-3.11-0.49-5.79-1.63-8.03-3.44c-2.24-1.81-3.87-4.03-4.88-6.69c-1.01-2.65-1.28-5.46-0.82-8.42
			C-788.68,694.15-787.56,691.55-785.79,689.33z M-780.51,704.62c1.4,1.74,3.5,2.82,6.32,3.26c2.78,0.43,5.11,0.04,6.98-1.18
			c1.88-1.22,3.01-3.09,3.4-5.6c0.39-2.48-0.12-4.6-1.53-6.35c-1.41-1.75-3.5-2.84-6.29-3.28c-2.78-0.43-5.11-0.04-6.98,1.18
			c-1.87,1.23-3.01,3.09-3.4,5.6C-782.41,700.77-781.9,702.89-780.51,704.62z"/>
		<path class="st0" d="M-786.75,643.19c1.62-2.83,4.06-4.77,7.31-5.83l1.04,8.15c-1.07,0.69-1.87,1.63-2.41,2.83
			c-0.54,1.19-0.7,2.57-0.5,4.13c0.31,2.43,1.38,4.28,3.2,5.54c1.82,1.26,4.13,1.71,6.92,1.36c3.03-0.39,5.26-1.46,6.68-3.21
			c1.42-1.75,1.95-4.05,1.59-6.91c-0.23-1.83-0.94-3.37-2.12-4.63c-1.18-1.25-2.74-2.04-4.67-2.38l1.24,9.72l-5.54,0.71l-2.06-16.16
			l7.61-0.97c1.94,0.36,3.78,1.1,5.54,2.22c1.76,1.12,3.27,2.64,4.52,4.57c1.25,1.93,2.05,4.21,2.38,6.85
			c0.41,3.21,0.09,6.1-0.97,8.68c-1.06,2.58-2.73,4.67-5.03,6.29c-2.29,1.62-5.01,2.63-8.17,3.03c-3.15,0.4-6.04,0.11-8.67-0.88
			c-2.62-0.99-4.78-2.59-6.44-4.8c-1.67-2.21-2.71-4.91-3.12-8.09C-788.93,649.44-788.37,646.02-786.75,643.19z"/>
		<path class="st0" d="M-797.05,617.9l30.23-10.76l2.6,7.31l-30.23,10.76L-797.05,617.9z"/>
		<path class="st0" d="M-790.55,573.56l6.32,10.23l6.03-1.38l4.3,6.95l-33.28,6.74l-4.7-7.61l20.92-26.75l4.34,7.03L-790.55,573.56z
			 M-794.52,578.36l-7.94,9.6l12.16-2.77L-794.52,578.36z"/>
	</g>
</g>
<g>
	<rect x="1739.92" y="1728.31" class="st0" width="9.06" height="0.87"/>
	
		<rect x="1745.1" y="1729.71" transform="matrix(0.0813 -0.9967 0.9967 0.0813 -123.3375 3331.4697)" class="st0" width="0.87" height="5.87"/>
	
		<rect x="1744.86" y="1734.77" transform="matrix(0.1451 -0.9894 0.9894 0.1451 -227.35 3212.3135)" class="st0" width="0.87" height="5.91"/>
	
		<rect x="1744.02" y="1739.33" transform="matrix(0.1868 -0.9824 0.9824 0.1868 -292.9756 3130.6882)" class="st0" width="0.87" height="5.95"/>
	
		<rect x="1742.74" y="1743.88" transform="matrix(0.2943 -0.9557 0.9557 0.2943 -439.3291 2898.6404)" class="st0" width="0.87" height="5.87"/>
	
		<rect x="1739.95" y="1746.41" transform="matrix(0.3439 -0.939 0.939 0.3439 -502.2888 2782.9875)" class="st0" width="0.87" height="9.06"/>
	
		<rect x="1739.36" y="1752.74" transform="matrix(0.4192 -0.9079 0.9079 0.4192 -583.474 2599.3064)" class="st0" width="0.87" height="5.87"/>
	
		<rect x="1737.38" y="1757.41" transform="matrix(0.4766 -0.8791 0.8791 0.4766 -637.9854 2449.1802)" class="st0" width="0.87" height="5.91"/>
	
		<rect x="1735.02" y="1761.4" transform="matrix(0.5132 -0.8583 0.8583 0.5132 -669.4849 2348.407)" class="st0" width="0.87" height="5.95"/>
	
		<rect x="1732.27" y="1765.24" transform="matrix(0.605 -0.7962 0.7962 0.605 -723.4662 2077.9114)" class="st0" width="0.87" height="5.87"/>
	
		<rect x="1728.23" y="1766.55" transform="matrix(0.6459 -0.7634 0.7634 0.6459 -739.9565 1946.9423)" class="st0" width="0.87" height="9.06"/>
	
		<rect x="1726.05" y="1772.4" transform="matrix(0.7059 -0.7083 0.7083 0.7059 -749.7302 1744.9437)" class="st0" width="0.87" height="5.87"/>
	
		<rect x="1722.58" y="1776.11" transform="matrix(0.7499 -0.6616 0.6616 0.7499 -746.0203 1584.8997)" class="st0" width="0.87" height="5.91"/>
	
		<rect x="1718.98" y="1779.04" transform="matrix(0.7771 -0.6294 0.6294 0.7771 -738.3007 1479.3882)" class="st0" width="0.87" height="5.95"/>
	
		<rect x="1715.09" y="1781.7" transform="matrix(0.842 -0.5395 0.5395 0.842 -691.7445 1207.5793)" class="st0" width="0.87" height="5.87"/>
	
		<rect x="1710.3" y="1781.44" transform="matrix(0.8691 -0.4946 0.4946 0.8691 -659.4792 1079.999)" class="st0" width="0.87" height="9.06"/>
	
		<rect x="1706.79" y="1786.28" transform="matrix(0.9065 -0.4223 0.4223 0.9065 -595.8843 888.3295)" class="st0" width="0.87" height="5.87"/>
	
		<rect x="1702.25" y="1788.57" transform="matrix(0.9317 -0.3633 0.3633 0.9317 -534.53 741.0212)" class="st0" width="0.87" height="5.91"/>
	
		<rect x="1697.86" y="1790.08" transform="matrix(0.9462 -0.3236 0.3236 0.9462 -488.8937 646.1207)" class="st0" width="0.87" height="5.95"/>
	
		<rect x="1693.3" y="1791.25" transform="matrix(0.9762 -0.217 0.217 0.9762 -349.0086 410.3396)" class="st0" width="0.87" height="5.87"/>
	
		<rect x="1688.34" y="1789.26" transform="matrix(0.9862 -0.1656 0.1656 0.9862 -273.6753 304.3506)" class="st0" width="0.87" height="9.06"/>
	
		<rect x="1683.93" y="1792.69" transform="matrix(0.9964 -0.0848 0.0848 0.9964 -146.1714 149.2683)" class="st0" width="0.87" height="5.87"/>
	
		<rect x="1678.88" y="1793.27" transform="matrix(0.9998 -0.0207 0.0207 0.9998 -36.7926 35.1179)" class="st0" width="0.87" height="5.91"/>
	
		<rect x="1671.68" y="1795.72" transform="matrix(0.0212 -0.9998 0.9998 0.0212 -156.6475 3432.3071)" class="st0" width="5.95" height="0.87"/>
	
		<rect x="1667.06" y="1795.21" transform="matrix(0.1324 -0.9912 0.9912 0.1324 -330.8836 3213.2922)" class="st0" width="5.87" height="0.87"/>
	
		<rect x="1660.94" y="1793.14" transform="matrix(0.1835 -0.983 0.983 0.1835 -403.2233 3101.7019)" class="st0" width="9.06" height="0.87"/>
	
		<rect x="1657.76" y="1793.34" transform="matrix(0.2625 -0.9649 0.9649 0.2625 -506.0683 2925.4534)" class="st0" width="5.87" height="0.87"/>
	
		<rect x="1652.79" y="1792.17" transform="matrix(0.3245 -0.9459 0.9459 0.3245 -577.1196 2777.1182)" class="st0" width="5.91" height="0.87"/>
	
		<rect x="1648.42" y="1790.51" transform="matrix(0.3639 -0.9314 0.9314 0.3639 -617.6872 2677.4207)" class="st0" width="5.95" height="0.87"/>
	
		<rect x="1644.26" y="1788.42" transform="matrix(0.4653 -0.8852 0.8852 0.4653 -702.6363 2414.6069)" class="st0" width="5.87" height="0.87"/>
	
		<rect x="1639.13" y="1784.92" transform="matrix(0.5105 -0.8599 0.8599 0.5105 -730.6249 2287.2339)" class="st0" width="9.06" height="0.87"/>
	
		<rect x="1636.17" y="1783.47" transform="matrix(0.579 -0.8154 0.8154 0.579 -764.387 2087.5701)" class="st0" width="5.87" height="0.87"/>
	
		<rect x="1631.9" y="1780.67" transform="matrix(0.6302 -0.7765 0.7765 0.6302 -778.3298 1928.1472)" class="st0" width="5.91" height="0.87"/>
	
		<rect x="1628.38" y="1777.61" transform="matrix(0.6623 -0.7492 0.7492 0.6623 -781.2746 1822.642)" class="st0" width="5.95" height="0.87"/>
	
		<rect x="1625.19" y="1774.21" transform="matrix(0.7415 -0.671 0.671 0.7415 -769.8438 1551.2565)" class="st0" width="5.87" height="0.87"/>
	
		<rect x="1621.48" y="1769.7" transform="matrix(0.7754 -0.6315 0.6315 0.7754 -752.6017 1424.4426)" class="st0" width="9.06" height="0.87"/>
	
		<rect x="1619.3" y="1766.78" transform="matrix(0.8238 -0.5669 0.5669 0.8238 -715.972 1231.042)" class="st0" width="5.87" height="0.87"/>
	
		<rect x="1616.25" y="1762.68" transform="matrix(0.8585 -0.5128 0.5128 0.8585 -675.0157 1079.7701)" class="st0" width="5.91" height="0.87"/>
	
		<rect x="1613.99" y="1758.6" transform="matrix(0.8795 -0.4759 0.4759 0.8795 -642.3184 981.5842)" class="st0" width="5.95" height="0.87"/>
	
		<rect x="1612.17" y="1754.3" transform="matrix(0.9268 -0.3755 0.3755 0.9268 -540.7668 734.9902)" class="st0" width="5.87" height="0.87"/>
	
		<rect x="1610.14" y="1749.34" transform="matrix(0.9452 -0.3263 0.3263 0.9452 -482.6322 622.7432)" class="st0" width="9.06" height="0.87"/>
	
		<rect x="1609.19" y="1745.29" transform="matrix(0.9687 -0.2482 0.2482 0.9687 -382.8617 454.7816)" class="st0" width="5.87" height="0.87"/>
	
		<rect x="1607.74" y="1740.41" transform="matrix(0.9825 -0.1863 0.1863 0.9825 -296.0772 330.4896)" class="st0" width="5.91" height="0.87"/>
	
		<rect x="1607.01" y="1735.81" transform="matrix(0.9895 -0.1448 0.1448 0.9895 -234.4394 251.4235)" class="st0" width="5.95" height="0.87"/>
	
		<rect x="1606.79" y="1731.13" transform="matrix(0.9994 -0.0338 0.0338 0.9994 -57.6022 55.3932)" class="st0" width="5.87" height="0.87"/>
	
		<rect x="1610.58" y="1722.23" transform="matrix(0.0184 -0.9998 0.9998 0.0184 -145.1299 3305.6836)" class="st0" width="0.87" height="9.06"/>
	
		<rect x="1609.59" y="1719.15" transform="matrix(0.0997 -0.995 0.995 0.0997 -264.0214 3152.3621)" class="st0" width="0.87" height="5.87"/>
	
		<rect x="1609.92" y="1714.05" transform="matrix(0.1633 -0.9866 0.9866 0.1633 -346.6003 3025.3132)" class="st0" width="0.87" height="5.91"/>
	
		<rect x="1610.85" y="1709.47" transform="matrix(0.2048 -0.9788 0.9788 0.2048 -394.8682 2938.8423)" class="st0" width="0.87" height="5.95"/>
	
		<rect x="1612.21" y="1705.02" transform="matrix(0.3119 -0.9501 0.9501 0.3119 -513.0616 2707.5056)" class="st0" width="0.87" height="5.87"/>
	
		<rect x="1615.08" y="1699.36" transform="matrix(0.3612 -0.9325 0.9325 0.3612 -556.8605 2594.9001)" class="st0" width="0.87" height="9.06"/>
	
		<rect x="1615.75" y="1696.22" transform="matrix(0.4359 -0.9 0.9 0.4359 -617.5287 2413.094)" class="st0" width="0.87" height="5.87"/>
	
		<rect x="1617.81" y="1691.55" transform="matrix(0.4927 -0.8702 0.8702 0.4927 -653.5944 2267.9128)" class="st0" width="0.87" height="5.91"/>
	
		<rect x="1620.25" y="1687.56" transform="matrix(0.529 -0.8486 0.8486 0.529 -671.2744 2171.6436)" class="st0" width="0.87" height="5.95"/>
	
		<rect x="1623.07" y="1683.86" transform="matrix(0.6197 -0.7849 0.7849 0.6197 -706.4277 1915.7908)" class="st0" width="0.87" height="5.87"/>
	
		<rect x="1627.16" y="1679.43" transform="matrix(0.6599 -0.7514 0.7514 0.6599 -711.699 1795.6647)" class="st0" width="0.87" height="9.06"/>
	
		<rect x="1629.42" y="1676.81" transform="matrix(0.7189 -0.6952 0.6952 0.7189 -709.4664 1605.2422)" class="st0" width="0.87" height="5.87"/>
	
		<rect x="1632.95" y="1673.13" transform="matrix(0.7619 -0.6477 0.6477 0.7619 -696.6735 1456.9307)" class="st0" width="0.87" height="5.91"/>
	
		<rect x="1636.61" y="1670.22" transform="matrix(0.7885 -0.615 0.615 0.7885 -682.8184 1360.5436)" class="st0" width="0.87" height="5.95"/>
	
		<rect x="1640.54" y="1667.72" transform="matrix(0.8518 -0.5238 0.5238 0.8518 -631.9939 1107.1976)" class="st0" width="0.87" height="5.87"/>
	
		<rect x="1645.36" y="1664.87" transform="matrix(0.878 -0.4786 0.4786 0.878 -598.2377 991.2771)" class="st0" width="0.87" height="9.06"/>
	
		<rect x="1648.93" y="1663.29" transform="matrix(0.9141 -0.4055 0.4055 0.9141 -533.9637 811.9525)" class="st0" width="0.87" height="5.87"/>
	
		<rect x="1653.51" y="1661.05" transform="matrix(0.9382 -0.346 0.346 0.9382 -473.6362 675.1475)" class="st0" width="0.87" height="5.91"/>
	
		<rect x="1657.93" y="1659.57" transform="matrix(0.952 -0.3062 0.3062 0.952 -429.4211 587.6583)" class="st0" width="0.87" height="5.95"/>
	
		<rect x="1662.51" y="1658.58" transform="matrix(0.98 -0.1989 0.1989 0.98 -297.2759 363.9983)" class="st0" width="0.87" height="5.87"/>
	
		<rect x="1667.46" y="1657.46" transform="matrix(0.9891 -0.1473 0.1473 0.9891 -226.6571 263.8637)" class="st0" width="0.87" height="9.06"/>
	
		<rect x="1671.91" y="1657.3" transform="matrix(0.9978 -0.0664 0.0664 0.9978 -106.5266 114.6816)" class="st0" width="0.87" height="5.87"/>
	
		<rect x="1676.97" y="1656.77" transform="matrix(1 -2.282285e-03 2.282285e-03 1 -3.7836 3.8326)" class="st0" width="0.87" height="5.91"/>
	
		<rect x="1679.08" y="1659.45" transform="matrix(0.0396 -0.9992 0.9992 0.0396 -43.1672 3274.8525)" class="st0" width="5.95" height="0.87"/>
	
		<rect x="1683.78" y="1660.04" transform="matrix(0.1506 -0.9886 0.9886 0.1506 -208.8591 3077.8718)" class="st0" width="5.87" height="0.87"/>
	
		<rect x="1686.67" y="1662.2" transform="matrix(0.2019 -0.9794 0.9794 0.2019 -278.6144 2983.376)" class="st0" width="9.06" height="0.87"/>
	
		<rect x="1693.04" y="1662.08" transform="matrix(0.281 -0.9597 0.9597 0.281 -376.0839 2823.0669)" class="st0" width="5.87" height="0.87"/>
	
		<rect x="1697.95" y="1663.34" transform="matrix(0.3416 -0.9398 0.9398 0.3416 -443.8076 2694.0452)" class="st0" width="5.91" height="0.87"/>
	
		<rect x="1702.24" y="1665.09" transform="matrix(0.3812 -0.9245 0.9245 0.3812 -484.5647 2607.1191)" class="st0" width="5.95" height="0.87"/>
	
		<rect x="1706.45" y="1667.25" transform="matrix(0.4809 -0.8768 0.8768 0.4809 -574.8317 2364.4895)" class="st0" width="5.87" height="0.87"/>
	
		<rect x="1708.32" y="1670.82" transform="matrix(0.5265 -0.8502 0.8502 0.5265 -609.8389 2247.5051)" class="st0" width="9.06" height="0.87"/>
	
		<rect x="1714.44" y="1672.35" transform="matrix(0.5935 -0.8048 0.8048 0.5935 -648.1999 2062.2051)" class="st0" width="5.87" height="0.87"/>
	
		<rect x="1718.62" y="1675.23" transform="matrix(0.6442 -0.7649 0.7649 0.6442 -669.0993 1913.0671)" class="st0" width="5.91" height="0.87"/>
	
		<rect x="1722.05" y="1678.35" transform="matrix(0.6755 -0.7373 0.7373 0.6755 -678.1121 1816.5677)" class="st0" width="5.95" height="0.87"/>
	
		<rect x="1725.26" y="1681.81" transform="matrix(0.7528 -0.6582 0.6582 0.7528 -680.1292 1553.3739)" class="st0" width="5.87" height="0.87"/>
	
		<rect x="1725.69" y="1686.36" transform="matrix(0.7865 -0.6176 0.6176 0.7865 -672.3526 1428.7534)" class="st0" width="9.06" height="0.87"/>
	
		<rect x="1731.01" y="1689.35" transform="matrix(0.8347 -0.5507 0.5507 0.8347 -643.9421 1234.1445)" class="st0" width="5.87" height="0.87"/>
	
		<rect x="1733.94" y="1693.5" transform="matrix(0.8681 -0.4963 0.4963 0.8681 -611.7269 1085.491)" class="st0" width="5.91" height="0.87"/>
	
		<rect x="1736.08" y="1697.62" transform="matrix(0.8882 -0.4595 0.4595 0.8882 -585.8145 989.0508)" class="st0" width="5.95" height="0.87"/>
	
		<rect x="1737.91" y="1701.96" transform="matrix(0.9333 -0.359 0.359 0.9333 -495.1569 738.5526)" class="st0" width="5.87" height="0.87"/>
	
		<rect x="1736.66" y="1706.93" transform="matrix(0.9511 -0.309 0.309 0.9511 -442.3385 621.5281)" class="st0" width="9.06" height="0.87"/>
	
		<rect x="1740.72" y="1711.02" transform="matrix(0.9732 -0.2298 0.2298 0.9732 -346.6191 446.4775)" class="st0" width="5.87" height="0.87"/>
	
		<rect x="1742.04" y="1715.93" transform="matrix(0.9858 -0.168 0.168 0.9858 -263.5461 317.5516)" class="st0" width="5.91" height="0.87"/>
	
		<rect x="1742.63" y="1720.54" transform="matrix(0.9921 -0.1256 0.1256 0.9921 -202.3014 232.8382)" class="st0" width="5.95" height="0.87"/>
	
		<rect x="1742.85" y="1724.56" transform="matrix(0.9964 -0.085 0.085 0.9964 -140.2485 154.5651)" class="st0" width="5.89" height="0.87"/>
</g>
<path class="st0" d="M1630.46,1614.27c-18.43,0-35.33,6.66-48.43,17.71c0.58,0.44,1.15,0.91,1.68,1.4
	c12.68-10.58,28.98-16.95,46.74-16.95c40.3,0,73.08,32.78,73.08,73.08c0,40.29-32.78,73.07-73.08,73.07
	c-40.29,0-73.07-32.78-73.07-73.07c0-5.22,0.55-10.32,1.6-15.23c-0.69-0.25-1.36-0.54-2.02-0.85c-1.14,5.18-1.74,10.57-1.74,16.08
	c0,41.48,33.75,75.23,75.23,75.23c41.49,0,75.24-33.75,75.24-75.23C1705.7,1648.02,1671.95,1614.27,1630.46,1614.27z"/>
<g>
	<path class="st1" d="M1624.62,1641.36c0,0,15.52,66.87,15.9,70.57l25.99-40.42l8.72,5.61l-38.93,60.55c0,0-15.68-67.32-15.85-70.65
		l-26.04,40.5l-8.72-5.61L1624.62,1641.36z"/>
</g>
<g>
	<path class="st0" d="M1567.38,1676.85c-14.02,0-25.43-11.41-25.43-25.43s11.41-25.43,25.43-25.43s25.43,11.41,25.43,25.43
		S1581.4,1676.85,1567.38,1676.85z M1567.38,1628.16c-12.83,0-23.27,10.44-23.27,23.27s10.44,23.27,23.27,23.27
		s23.27-10.44,23.27-23.27S1580.21,1628.16,1567.38,1628.16z"/>
</g>
<circle class="st0" cx="1554.94" cy="1638.52" r="1.55"/>
<circle class="st0" cx="1579.86" cy="1664.39" r="1.55"/>
<circle class="st0" cx="1579.86" cy="1638.52" r="1.55"/>
<circle class="st0" cx="1554.94" cy="1664.39" r="1.55"/>
<g>
	<path class="st0" d="M1583.66,1651.46l-10.46-2.92l3.62-6.49l-6.5,3.62l-2.94-10.59l-2.92,10.59l-6.52-3.66l3.65,6.53l-10.45,2.91
		l10.46,2.92l-3.62,6.49l6.5-3.62l2.94,10.59l2.92-10.59l6.52,3.66l-3.65-6.53L1583.66,1651.46z M1574.36,1644.49l-2.16,3.85
		l-1.48-0.27l-0.27-1.4L1574.36,1644.49z M1560.41,1644.46l3.85,2.16l-0.27,1.48l-1.4,0.27L1560.41,1644.46z M1560.44,1658.42
		l2.16-3.85l1.48,0.27l0.27,1.4L1560.44,1658.42z M1556.28,1651.43l8.58-2.58l2.52,2.58H1556.28z M1567.4,1651.45v11.1l-2.58-8.58
		L1567.4,1651.45v-11.1l2.58,8.58L1567.4,1651.45z M1569.94,1654.06l-2.52-2.58h11.1L1569.94,1654.06z M1574.39,1658.45l-3.85-2.16
		l0.27-1.48l1.4-0.27L1574.39,1658.45z"/>
</g>
<path id="SVGID_x5F_1_x5F_" style="fill:none;" d="M1729.28,1651.83c-42.02-28.12-98.88-16.85-127,25.17
	c-28.12,42.02-16.85,98.88,25.17,127c42.02,28.12,98.88,16.85,127-25.17C1782.57,1736.81,1771.3,1679.95,1729.28,1651.83z"/>
<text><textPath  xlink:href="#SVGID_x5F_1_x5F_" startOffset="-99.8333%">
<tspan  class="st0" style="font-family:'Gilroy-Extrabold'; font-size:16.8717px; letter-spacing:400;">INCOGNITA TECH</tspan></textPath>
</text>
<path id="SVGID_x5F_00000019648279064328625210000018046949404944883902_x5F_" style="fill:none;" d="M1714.14,1684.93
	c-23.74-19.76-59-16.53-78.76,7.2c-19.76,23.74-16.53,59,7.2,78.76c23.74,19.76,59,16.53,78.76-7.2
	C1741.1,1739.95,1737.88,1704.69,1714.14,1684.93z"/>
<text><textPath  xlink:href="#SVGID_x5F_00000019648279064328625210000018046949404944883902_x5F_" startOffset="-99.8333%">
<tspan  class="st0" style="font-family:'Poppins-Bold'; font-size:13.6492px; letter-spacing:260;">Technologia</tspan></textPath>
</text>
</svg>
